[Header]
FileType HTR
DataType HTRS
FileVersion 1
NumSegments 64
NumFrames 4
DataFrameRate 24
EulerRotationOrder ZYX
CalibrationUnits mm
RotationUnits Degrees
GlobalAxisofGravity Y
BoneLengthAxis Y
ScaleFactor 1.0
[SegmentNames&Hierarchy]
Hips	GLOBAL
Spine	Hips
Spine1	Spine
Spine2	Spine1
Neck	Spine2
Head	Neck
LeftEye	Head
RightEye	Head
LeftShoulder	Spine2
LeftArm	LeftShoulder
LeftForeArm	LeftArm
LeftHand	LeftForeArm
LeftHandThumb1	LeftHand
LeftHandThumb2	LeftHandThumb1
LeftHandThumb3	LeftHandThumb2
LeftHandThumb4	LeftHandThumb3
LeftHandIndex1	LeftHand
LeftHandIndex2	LeftHandIndex1
LeftHandIndex3	LeftHandIndex2
LeftHandIndex4	LeftHandIndex3
LeftHandMiddle1	LeftHand
LeftHandMiddle2	LeftHandMiddle1
LeftHandMiddle3	LeftHandMiddle2
LeftHandMiddle4	LeftHandMiddle3
LeftHandRing1	LeftHand
LeftHandRing2	LeftHandRing1
LeftHandRing3	LeftHandRing2
LeftHandRing4	LeftHandRing3
LeftHandPinky1	LeftHand
LeftHandPinky2	LeftHandPinky1
LeftHandPinky3	LeftHandPinky2
LeftHandPinky4	LeftHandPinky3
RightShoulder	Spine2
RightArm	RightShoulder
RightForeArm	RightArm
RightHand	RightForeArm
RightHandPinky1	RightHand
RightHandPinky2	RightHandPinky1
RightHandPinky3	RightHandPinky2
RightHandPinky4	RightHandPinky3
RightHandRing1	RightHand
RightHandRing2	RightHandRing1
RightHandRing3	RightHandRing2
RightHandRing4	RightHandRing3
RightHandMiddle1	RightHand
RightHandMiddle2	RightHandMiddle1
RightHandMiddle3	RightHandMiddle2
RightHandMiddle4	RightHandMiddle3
RightHandIndex1	RightHand
RightHandIndex2	RightHandIndex1
RightHandIndex3	RightHandIndex2
RightHandIndex4	RightHandIndex3
RightHandThumb1	RightHand
RightHandThumb2	RightHandThumb1
RightHandThumb3	RightHandThumb2
RightHandThumb4	RightHandThumb3
LeftUpLeg	Hips
LeftLeg	LeftUpLeg
LeftFoot	LeftLeg
LeftToeBase	LeftFoot
RightUpLeg	Hips
RightLeg	RightUpLeg
RightFoot	RightLeg
RightToeBase	RightFoot
[BasePosition]
Hips	0	0	0	0	0	0	1
Spine	0	0	0	0	0	0	1
Spine1	0	0	0	0	0	0	1
Spine2	0	0	0	0	0	0	1
Neck	0	0	0	0	0	0	1
Head	0	0	0	0	0	0	1
LeftEye	0	0	0	0	0	0	1
RightEye	0	0	0	0	0	0	1
LeftShoulder	0	0	0	0	0	0	1
LeftArm	0	0	0	0	0	0	1
LeftForeArm	0	0	0	0	0	0	1
LeftHand	0	0	0	0	0	0	1
LeftHandThumb1	0	0	0	0	0	0	1
LeftHandThumb2	0	0	0	0	0	0	1
LeftHandThumb3	0	0	0	0	0	0	1
LeftHandThumb4	0	0	0	0	0	0	1
LeftHandIndex1	0	0	0	0	0	0	1
LeftHandIndex2	0	0	0	0	0	0	1
LeftHandIndex3	0	0	0	0	0	0	1
LeftHandIndex4	0	0	0	0	0	0	1
LeftHandMiddle1	0	0	0	0	0	0	1
LeftHandMiddle2	0	0	0	0	0	0	1
LeftHandMiddle3	0	0	0	0	0	0	1
LeftHandMiddle4	0	0	0	0	0	0	1
LeftHandRing1	0	0	0	0	0	0	1
LeftHandRing2	0	0	0	0	0	0	1
LeftHandRing3	0	0	0	0	0	0	1
LeftHandRing4	0	0	0	0	0	0	1
LeftHandPinky1	0	0	0	0	0	0	1
LeftHandPinky2	0	0	0	0	0	0	1
LeftHandPinky3	0	0	0	0	0	0	1
LeftHandPinky4	0	0	0	0	0	0	1
RightShoulder	0	0	0	0	0	0	1
RightArm	0	0	0	0	0	0	1
RightForeArm	0	0	0	0	0	0	1
RightHand	0	0	0	0	0	0	1
RightHandPinky1	0	0	0	0	0	0	1
RightHandPinky2	0	0	0	0	0	0	1
RightHandPinky3	0	0	0	0	0	0	1
RightHandPinky4	0	0	0	0	0	0	1
RightHandRing1	0	0	0	0	0	0	1
RightHandRing2	0	0	0	0	0	0	1
RightHandRing3	0	0	0	0	0	0	1
RightHandRing4	0	0	0	0	0	0	1
RightHandMiddle1	0	0	0	0	0	0	1
RightHandMiddle2	0	0	0	0	0	0	1
RightHandMiddle3	0	0	0	0	0	0	1
RightHandMiddle4	0	0	0	0	0	0	1
RightHandIndex1	0	0	0	0	0	0	1
RightHandIndex2	0	0	0	0	0	0	1
RightHandIndex3	0	0	0	0	0	0	1
RightHandIndex4	0	0	0	0	0	0	1
RightHandThumb1	0	0	0	0	0	0	1
RightHandThumb2	0	0	0	0	0	0	1
RightHandThumb3	0	0	0	0	0	0	1
RightHandThumb4	0	0	0	0	0	0	1
LeftUpLeg	0	0	0	0	0	0	1
LeftLeg	0	0	0	0	0	0	1
LeftFoot	0	0	0	0	0	0	1
LeftToeBase	0	0	0	0	0	0	1
RightUpLeg	0	0	0	0	0	0	1
RightLeg	0	0	0	0	0	0	1
RightFoot	0	0	0	0	0	0	1
RightToeBase	0	0	0	0	0	0	1
[Hips]
36	13.27415466	943.5631104	54.88153076	-13.26792145	-10.34459496	10.02343273	1.0
37	2.910662174	948.5887451	73.9281311	-11.49278069	-0.3503525257	7.767841339	1.0
38	-10.22260857	962.7783203	93.5969696	-10.0057478	12.43604374	4.026540756	1.0
39	-26.70283318	981.6612549	114.1828995	-9.525523186	26.2039547	-0.5169811249	1.0
[Spine]
36	0	101.8159943	1.315000057	25.4407711	5.797600746	-9.474905014	1.0
37	0	101.8159943	1.315000057	25.87372971	10.51338005	-3.418411255	1.0
38	0	101.8159943	1.315000057	26.90815353	11.93010139	3.469793558	1.0
39	0	101.8159943	1.315000057	27.59248734	11.6431694	10.09138393	1.0
[Spine1]
36	0	100.8349991	-10.00800037	-0.4058339	1.13967979	-7.717111588	1.0
37	0	100.8349991	-10.00800037	1.397792459	2.020572186	-7.377002716	1.0
38	0	100.8349991	-10.00800037	1.495525122	2.377869368	-6.44133997	1.0
39	0	100.8349991	-10.00800037	0.684512496	2.415590048	-5.386327267	1.0
[Spine2]
36	0	91	-13.73399925	-0.2933462858	0.7828937769	-7.763148785	1.0
37	0	91	-13.73399925	1.581763506	1.709098697	-7.419332027	1.0
38	0	91	-13.73399925	1.706662297	2.091813326	-6.487833977	1.0
39	0	91	-13.73399925	0.8941004872	2.168969631	-5.457427025	1.0
[Neck]
36	0	166.7169952	-25.16200066	-5.096590996	-0.4732726812	0.7801716328	1.0
37	0	166.7169952	-25.16200066	-3.899403095	-2.756673813	-1.690866709	1.0
38	0	166.7169952	-25.16200066	-1.005208015	-4.534163475	-3.727174997	1.0
39	0	166.7169952	-25.16200066	1.822768331	-5.875958443	-5.327023506	1.0
[Head]
36	0	96.17900085	16.84999847	-11.38902569	-2.089889526	14.47740269	1.0
37	0	96.17900085	16.84999847	-10.99134541	-15.91702175	13.47675037	1.0
38	0	96.17900085	16.84999847	-7.958156586	-28.15697289	12.84927368	1.0
39	0	96.17900085	16.84999847	-5.34831953	-38.35741806	12.52918911	1.0
[LeftEye]
36	30.6760006	64.09500122	92.83599854	0	0	0	1.0
37	30.6760006	64.09500122	92.83599854	0	0	0	1.0
38	30.6760006	64.09500122	92.83599854	0	0	0	1.0
39	30.6760006	64.09500122	92.83599854	0	0	0	1.0
[RightEye]
36	-30.6760006	64.09500122	92.83499908	0	0	0	1.0
37	-30.6760006	64.09500122	92.83499908	0	0	0	1.0
38	-30.6760006	64.09500122	92.83499908	0	0	0	1.0
39	-30.6760006	64.09500122	92.83499908	0	0	0	1.0
[LeftShoulder]
36	45.70400238	109.4599991	-26.28000069	-1.043675542	7.843173027	-17.26652718	1.0
37	45.70400238	109.4599991	-26.28000069	-0.8610126972	7.09832716	-17.17464638	1.0
38	45.70400238	109.4599991	-26.28000069	-0.6675336361	6.315351963	-16.96013641	1.0
39	45.70400238	109.4599991	-26.28000069	-0.455537796	5.604679585	-14.73362255	1.0
[LeftArm]
36	105.923996	-5.24600029	-22.32099915	-4.754693031	32.20193481	-36.63426208	1.0
37	105.923996	-5.24600029	-22.32099915	-16.38260269	37.04009628	-34.29924393	1.0
38	105.923996	-5.24600029	-22.32099915	-24.67133522	40.40544891	-28.72211456	1.0
39	105.923996	-5.24600029	-22.32099915	-35.18607712	39.32751465	-26.34899139	1.0
[LeftForeArm]
36	278.414978	-0.0009999999311	0	4.867737516e-06	-35.29063034	-0.0002080727136	1.0
37	278.414978	-0.0009999999311	0	6.190044587e-06	-44.77887726	-0.000216584318	1.0
38	278.414978	-0.0009999999311	0	-3.127418495e-06	-53.67367935	-0.0001978113141	1.0
39	278.414978	-0.0009999999311	0	5.36752259e-06	-58.93580627	-0.0002076761593	1.0
[LeftHand]
36	283.2879944	0	0	-42.36597824	-13.81495762	13.56527901	1.0
37	283.2879944	0	0	-58.36330032	-14.30121613	18.85382652	1.0
38	283.2879944	0	0	-66.92986298	-8.541764259	22.91493416	1.0
39	283.2879944	0	0	-69.50112152	-4.325787067	25.66036034	1.0
[LeftHandThumb1]
36	24.6609993	-15.75	26.8239994	-26.866745	-12.52996159	35.49002457	1.0
37	24.6609993	-15.75	26.8239994	-28.46405602	-11.40633106	34.4040947	1.0
38	24.6609993	-15.75	26.8239994	-28.61154366	-10.36083412	30.76026535	1.0
39	24.6609993	-15.75	26.8239994	-28.28219032	-9.569493294	27.99519157	1.0
[LeftHandThumb2]
36	32.29800034	-18.64699936	18.64699936	1.211490512	-0.1875103414	-1.054766655	1.0
37	32.29800034	-18.64699936	18.64699936	1.211571217	-0.1875517815	-1.054748654	1.0
38	32.29800034	-18.64699936	18.64699936	1.211645842	-0.1875768155	-1.054740429	1.0
39	32.29800034	-18.64699936	18.64699936	1.21150291	-0.1874990761	-1.054776311	1.0
[LeftHandThumb3]
36	26.52600098	-15.31499958	15.31499958	0.7661406398	-4.036168098	4.201579571	1.0
37	26.52600098	-15.31499958	15.31499958	-0.2523270249	-2.843424559	4.105660439	1.0
38	26.52600098	-15.31499958	15.31499958	-1.423828244	-1.419410467	3.919836998	1.0
39	26.52600098	-15.31499958	15.31499958	-1.947494984	-0.06285701692	3.749178886	1.0
[LeftHandThumb4]
36	19.54599953	-11.28499985	11.28499985	0	0	0	1.0
37	19.54599953	-11.28499985	11.28499985	0	0	0	1.0
38	19.54599953	-11.28499985	11.28499985	0	0	0	1.0
39	19.54599953	-11.28499985	11.28499985	0	0	0	1.0
[LeftHandIndex1]
36	91.09299469	-5.170999527	22.60099792	0.03545176983	-7.797457695	-6.385573864	1.0
37	91.09299469	-5.170999527	22.60099792	0.04877921939	-9.516553879	-7.817398071	1.0
38	91.09299469	-5.170999527	22.60099792	-0.1074454114	-9.633275986	-15.14254665	1.0
39	91.09299469	-5.170999527	22.60099792	-0.4338597655	-8.22660923	-23.06123924	1.0
[LeftHandIndex2]
36	36.76399994	0	0	-0.0004815648717	0.08082561195	-0.6723282933	1.0
37	36.76399994	0	0	-0.0004636599042	0.07908620685	-0.6578548551	1.0
38	36.76399994	0	0	-0.0003868200583	0.07224318385	-0.6009149551	1.0
39	36.76399994	0	0	-0.0002934974327	0.06166339293	-0.5128763914	1.0
[LeftHandIndex3]
36	28.83100128	0	0	-0.03020254336	0.6443790197	-5.36793375	1.0
37	28.83100128	0	0	-0.03246561438	0.6679176688	-5.564641953	1.0
38	28.83100128	0	0	-0.03698049486	0.712714076	-5.939207077	1.0
39	28.83100128	0	0	-0.04131095111	0.7533849478	-6.279530525	1.0
[LeftHandIndex4]
36	23.92700005	0	0	0	0	0	1.0
37	23.92700005	0	0	0	0	0	1.0
38	23.92700005	0	0	0	0	0	1.0
39	23.92700005	0	0	0	0	0	1.0
[LeftHandMiddle1]
36	95.33399963	0	0	-0.1694577038	-2.161087513	-13.24467278	1.0
37	95.33399963	0	0	-0.1810806394	-2.688961267	-13.79554367	1.0
38	95.33399963	0	0	-0.3297855556	-2.38355732	-18.31235313	1.0
39	95.33399963	0	0	-0.5521187186	-1.712370157	-23.47669601	1.0
[LeftHandMiddle2]
36	36.98199844	0	0	-0.1228466034	1.294953227	-10.83760929	1.0
37	36.98199844	0	0	-0.1218461245	1.289689422	-10.793046	1.0
38	36.98199844	0	0	-0.1535945088	1.446397543	-12.12379456	1.0
39	36.98199844	0	0	-0.1963074505	1.632506728	-13.71322155	1.0
[LeftHandMiddle3]
36	29.50900078	0	0	-0.04323947057	0.7706342936	-6.423902988	1.0
37	29.50900078	0	0	-0.0451105684	0.7869023085	-6.560172558	1.0
38	29.50900078	0	0	-0.0500116609	0.8283358216	-6.907243729	1.0
39	29.50900078	0	0	-0.05504718795	0.8690573573	-7.248604298	1.0
[LeftHandMiddle4]
36	28.3390007	0	0	0	0	0	1.0
37	28.3390007	0	0	0	0	0	1.0
38	28.3390007	0	0	0	0	0	1.0
39	28.3390007	0	0	0	0	0	1.0
[LeftHandRing1]
36	91.04499817	-0.4390000105	-18.65100098	-0.6143481135	1.91621089	-24.40977097	1.0
37	91.04499817	-0.4390000105	-18.65100098	-0.6084134579	1.682773232	-24.29425049	1.0
38	91.04499817	-0.4390000105	-18.65100098	-0.753557384	1.816500068	-27.0887928	1.0
39	91.04499817	-0.4390000105	-18.65100098	-0.9569729567	2.205067873	-30.60302925	1.0
[LeftHandRing2]
36	31.54000092	0	0	-0.4151768982	2.354416847	-19.99849129	1.0
37	31.54000092	0	0	-0.3920418024	2.289916515	-19.4275341	1.0
38	31.54000092	0	0	-0.4023008943	2.318714142	-19.68220139	1.0
39	31.54000092	0	0	-0.4253975451	2.382348776	-20.24629593	1.0
[LeftHandRing3]
36	29.37700081	0	0	-0.06379646808	0.935276866	-7.804359436	1.0
37	29.37700081	0	0	-0.06345846504	0.9328263998	-7.78373003	1.0
38	29.37700081	0	0	-0.06380895525	0.9354817271	-7.806110859	1.0
39	29.37700081	0	0	-0.06448699534	0.9402230978	-7.845900536	1.0
[LeftHandRing4]
36	26.47500038	0	0	0	0	0	1.0
37	26.47500038	0	0	0	0	0	1.0
38	26.47500038	0	0	0	0	0	1.0
39	26.47500038	0	0	0	0	0	1.0
[LeftHandPinky1]
36	80.77799988	-4.887000084	-38.06099701	-1.780465484	4.223453999	-42.1645813	1.0
37	80.77799988	-4.887000084	-38.06099701	-1.716551781	4.265148163	-41.36595535	1.0
38	80.77799988	-4.887000084	-38.06099701	-1.856188297	4.300802708	-43.09858704	1.0
39	80.77799988	-4.887000084	-38.06099701	-2.082740068	4.372032642	-45.80064774	1.0
[LeftHandPinky2]
36	36	0	0	0.8649570942	-2.006089449	-16.42490005	1.0
37	36	0	0	0.8323351145	-2.128384829	-15.52024746	1.0
38	36	0	0	0.7771966457	-2.319387197	-14.09911919	1.0
39	36	0	0	0.7196481824	-2.501861334	-12.73108959	1.0
[LeftHandPinky3]
36	21.14200211	0	0	-0.04050305486	0.74591887	-6.21700716	1.0
37	21.14200211	0	0	-0.03950453922	0.7364950776	-6.138130188	1.0
38	21.14200211	0	0	-0.03753959388	0.71808815	-5.984155178	1.0
39	21.14200211	0	0	-0.03589715436	0.7020343542	-5.8499403	1.0
[LeftHandPinky4]
36	19.75699997	0	0	0	0	0	1.0
37	19.75699997	0	0	0	0	0	1.0
38	19.75699997	0	0	0	0	0	1.0
39	19.75699997	0	0	0	0	0	1.0
[RightShoulder]
36	-45.70000076	109.4620056	-26.28000069	-0.4533679187	0.7686385512	-21.77291298	1.0
37	-45.70000076	109.4620056	-26.28000069	-0.332942307	1.603985429	-17.11895752	1.0
38	-45.70000076	109.4620056	-26.28000069	0.1137136742	2.75769949	-7.576152802	1.0
39	-45.70000076	109.4620056	-26.28000069	0.5838883519	1.76084125	3.0028615	1.0
[RightArm]
36	-105.9280014	-5.248000145	-22.32099915	-61.00542068	21.32605934	-9.919124603	1.0
37	-105.9280014	-5.248000145	-22.32099915	-73.73807526	28.80002403	-10.0546236	1.0
38	-105.9280014	-5.248000145	-22.32099915	-81.88504028	35.18353653	-11.47928905	1.0
39	-105.9280014	-5.248000145	-22.32099915	-87.20053864	40.60948563	-11.07826519	1.0
[RightForeArm]
36	-278.414978	0	0	0.0002136234689	91.42990112	0.0003204345703	1.0
37	-278.414978	0	0	-0.0007476806641	90.29816437	-1.525878906e-05	1.0
38	-278.414978	0	0	1.076427634e-05	85.28607178	-6.549397222e-05	1.0
39	-278.414978	0	0	-1.417548174e-05	78.70233917	-9.505743037e-07	1.0
[RightHand]
36	-283.2879944	0	0.0009999999311	-32.75074768	24.94911766	2.106169224	1.0
37	-283.2879944	0	0.0009999999311	-46.77195358	31.41184807	-9.376293182	1.0
38	-283.2879944	0	0.0009999999311	-53.94183731	30.68348122	-13.91413116	1.0
39	-283.2879944	0	0.0009999999311	-57.18677902	25.86481857	-15.89394188	1.0
[RightHandPinky1]
36	-80.76699829	-4.885000229	-38.06000137	-5.495644569	-13.40373611	78.15955353	1.0
37	-80.76699829	-4.885000229	-38.06000137	-5.400514603	-14.61996269	77.39668274	1.0
38	-80.76699829	-4.885000229	-38.06000137	-5.40919733	-16.13390732	77.52119446	1.0
39	-80.76699829	-4.885000229	-38.06000137	-5.435313225	-17.21377945	77.78002167	1.0
[RightHandPinky2]
36	-36	0	0.0009999999311	-2.017908335	-4.890883446	44.83338165	1.0
37	-36	0	0.0009999999311	-1.92567873	-4.796625614	43.74119949	1.0
38	-36	0	0.0009999999311	-1.853447676	-4.720217705	42.87041473	1.0
39	-36	0	0.0009999999311	-1.814239383	-4.67773962	42.391819	1.0
[RightHandPinky3]
36	-21.14200211	0	0	-0.03835197166	0.7293916941	-6.019767761	1.0
37	-21.14200211	0	0	-0.03727319092	0.7190864682	-5.934412003	1.0
38	-21.14200211	0	0	-0.03518570215	0.6987338662	-5.765836716	1.0
39	-21.14200211	0	0	-0.03313190863	0.6781030297	-5.595021725	1.0
[RightHandPinky4]
36	-19.75699997	0	0	0	0	0	1.0
37	-19.75699997	0	0	0	0	0	1.0
38	-19.75699997	0	0	0	0	0	1.0
39	-19.75699997	0	0	0	0	0	1.0
[RightHandRing1]
36	-91.03599548	-0.4390000105	-18.65100098	-3.546248436	-6.107558727	60.75324249	1.0
37	-91.03599548	-0.4390000105	-18.65100098	-3.254827976	-6.269904137	57.94815445	1.0
38	-91.03599548	-0.4390000105	-18.65100098	-3.114489794	-6.976107121	56.57186508	1.0
39	-91.03599548	-0.4390000105	-18.65100098	-3.056142092	-7.820763588	56.01078033	1.0
[RightHandRing2]
36	-31.54000092	0	0	-0.4067358077	-2.342816591	19.69538307	1.0
37	-31.54000092	0	0	-0.4341410995	-2.417933226	20.35515213	1.0
38	-31.54000092	0	0	-0.4923818111	-2.569323778	21.6936264	1.0
39	-31.54000092	0	0	-0.5413050056	-2.68892765	22.76024628	1.0
[RightHandRing3]
36	-29.37700081	0	0	0.8495568633	-0.002991436049	0.02563164942	1.0
37	-29.37700081	0	0	1.787305236	-0.06067728624	0.5002660751	1.0
38	-29.37700081	0	0	2.865921021	-0.1277163327	1.053491712	1.0
39	-29.37700081	0	0	3.511785746	-0.1833344847	1.510611534	1.0
[RightHandRing4]
36	-26.47500038	0	0	0	0	0	1.0
37	-26.47500038	0	0	0	0	0	1.0
38	-26.47500038	0	0	0	0	0	1.0
39	-26.47500038	0	0	0	0	0	1.0
[RightHandMiddle1]
36	-95.32500458	0	0	-2.316799164	1.408681989	48.59580994	1.0
37	-95.32500458	0	0	-1.717422962	2.508564711	41.67654037	1.0
38	-95.32500458	0	0	-1.397646427	2.645593405	37.51657867	1.0
39	-95.32500458	0	0	-1.260850906	1.948349833	35.50148392	1.0
[RightHandMiddle2]
36	-36.98199844	0	0	-0.3301733732	-2.116928816	17.72776222	1.0
37	-36.98199844	0	0	-0.443138212	-2.442034483	20.56739235	1.0
38	-36.98199844	0	0	-0.6345490813	-2.900909185	24.67229652	1.0
39	-36.98199844	0	0	-0.7917506695	-3.220731974	27.61566162	1.0
[RightHandMiddle3]
36	-29.50900078	0	0	0.02171553485	-0.1391845942	1.134423733	1.0
37	-29.50900078	0	0	1.388130784	-0.2893757522	2.369051456	1.0
38	-29.50900078	0	0	2.699725151	-0.4442336261	3.64872098	1.0
39	-29.50900078	0	0	3.321832895	-0.5613458753	4.612654209	1.0
[RightHandMiddle4]
36	-28.3390007	0	0.0009999999311	0	0	0	1.0
37	-28.3390007	0	0.0009999999311	0	0	0	1.0
38	-28.3390007	0	0.0009999999311	0	0	0	1.0
39	-28.3390007	0	0.0009999999311	0	0	0	1.0
[RightHandIndex1]
36	-91.08300018	-5.167999744	22.60099792	-1.416964889	10.28165531	39.79866791	1.0
37	-91.08300018	-5.167999744	22.60099792	-0.5639818311	12.93516636	28.02428818	1.0
38	-91.08300018	-5.167999744	22.60099792	-0.205457285	13.90469837	21.34506798	1.0
39	-91.08300018	-5.167999744	22.60099792	-0.0981014967	13.18362904	17.94667053	1.0
[RightHandIndex2]
36	-36.76399994	0	0	-0.118250832	-1.27697289	10.58089638	1.0
37	-36.76399994	0	0	-0.4064274132	-2.341953278	19.6877594	1.0
38	-36.76399994	0	0	-0.907877326	-3.433227301	29.61645126	1.0
39	-36.76399994	0	0	-1.337740779	-4.096592426	36.1558342	1.0
[RightHandIndex3]
36	-28.83100128	0	0	-0.00164008711	0.1510196477	-1.244132757	1.0
37	-28.83100128	0	0	2.053341177e-07	0.002586223884	-0.02127924748	1.0
38	-28.83100128	0	0	-0.000690986577	-0.09793306142	0.8068588376	1.0
39	-28.83100128	0	0	-0.002234220039	-0.1763383001	1.452614546	1.0
[RightHandIndex4]
36	-23.92700005	0	0	0	0	0	1.0
37	-23.92700005	0	0	0	0	0	1.0
38	-23.92700005	0	0	0	0	0	1.0
39	-23.92700005	0	0	0	0	0	1.0
[RightHandThumb1]
36	-24.64799881	-15.72700024	26.82600021	10.84678173	-6.41787672	-1.227214217	1.0
37	-24.64799881	-15.72700024	26.82600021	1.38305676	-7.193603516	-3.624858141	1.0
38	-24.64799881	-15.72700024	26.82600021	-5.120075703	-7.40262413	-11.40250206	1.0
39	-24.64799881	-15.72700024	26.82600021	-7.323769569	-8.046653748	-15.05802631	1.0
[RightHandThumb2]
36	-32.29800034	-18.64699936	18.64699936	2.064089537	0.32055673	1.74181664	1.0
37	-32.29800034	-18.64699936	18.64699936	2.068968773	0.3191574514	1.752896786	1.0
38	-32.29800034	-18.64699936	18.64699936	2.066501379	0.3241259754	1.732675076	1.0
39	-32.29800034	-18.64699936	18.64699936	2.057701588	0.3339735866	1.687654853	1.0
[RightHandThumb3]
36	-26.52600098	-15.31399918	15.31399918	-4.670409679	2.865234613	-3.59719038	1.0
37	-26.52600098	-15.31399918	15.31399918	-3.656579494	0.9211145639	-3.39816165	1.0
38	-26.52600098	-15.31399918	15.31399918	-3.089186668	0.2913415432	-3.271177053	1.0
39	-26.52600098	-15.31399918	15.31399918	-3.165004015	1.160776973	-3.214593649	1.0
[RightHandThumb4]
36	-19.54599953	-11.28499985	11.28499985	0	0	0	1.0
37	-19.54599953	-11.28499985	11.28499985	0	0	0	1.0
38	-19.54599953	-11.28499985	11.28499985	0	0	0	1.0
39	-19.54599953	-11.28499985	11.28499985	0	0	0	1.0
[LeftUpLeg]
36	82.07800293	-67.51699829	-15.99599934	-10.66765213	-2.984135151	-6.13376379	1.0
37	82.07800293	-67.51699829	-15.99599934	-10.2544241	-7.027288914	-3.725419521	1.0
38	82.07800293	-67.51699829	-15.99599934	-10.18416119	-11.81527328	0.516040504	1.0
39	82.07800293	-67.51699829	-15.99599934	-10.62693977	-11.97510719	4.553881168	1.0
[LeftLeg]
36	0	-443.7049866	2.845999956	45.12979507	6.871553898	-8.149433136	1.0
37	0	-443.7049866	2.845999956	44.69739151	7.760098934	-7.211567879	1.0
38	0	-443.7049866	2.845999956	42.04348373	4.128885746	-9.299650192	1.0
39	0	-443.7049866	2.845999956	38.66928864	-2.630323887	-7.64238739	1.0
[LeftFoot]
36	0	-444.2789917	-29.8219986	-24.6295681	14.7024622	-0.4446103871	1.0
37	0	-444.2789917	-29.8219986	-24.22699165	7.251013279	1.15454936	1.0
38	0	-444.2789917	-29.8219986	-22.40995979	3.240073681	2.535425663	1.0
39	0	-444.2789917	-29.8219986	-19.86509895	-4.30540657	2.099222898	1.0
[LeftToeBase]
36	0	-87.28699493	107.1060028	-0.0004966580891	4.643696684e-06	1.987431006e-06	1.0
37	0	-87.28699493	107.1060028	-0.0001117761785	6.395599712e-07	-1.276702164e-06	1.0
38	0	-87.28699493	107.1060028	-4.252402505e-06	-1.278070386e-06	1.092623961e-06	1.0
39	0	-87.28699493	107.1060028	-0.1727905422	1.700134703e-06	-1.111403094e-06	1.0
[RightUpLeg]
36	-82.07800293	-67.51699829	-15.99599934	-21.34999847	14.92558384	-19.48945427	1.0
37	-82.07800293	-67.51699829	-15.99599934	-24.25763321	10.78100109	-17.40306664	1.0
38	-82.07800293	-67.51699829	-15.99599934	-23.80395317	5.057608604	-15.83234501	1.0
39	-82.07800293	-67.51699829	-15.99599934	-20.84717369	-1.115305066	-13.20284653	1.0
[RightLeg]
36	0	-443.7049866	2.861999989	75.80099487	7.378669739	-11.29737473	1.0
37	0	-443.7049866	2.861999989	70.9205246	3.6365695	-11.01930523	1.0
38	0	-443.7049866	2.861999989	59.4785881	-3.377785206	-7.075596333	1.0
39	0	-443.7049866	2.861999989	43.8183136	-8.198407173	-6.159558773	1.0
[RightFoot]
36	0	-444.2770081	-29.83799934	-11.62837505	-3.138874054	3.754184008	1.0
37	0	-444.2770081	-29.83799934	-17.91059303	-0.9353548884	4.647402287	1.0
38	0	-444.2770081	-29.83799934	-18.16236877	1.134973288	9.060720444	1.0
39	0	-444.2770081	-29.83799934	-13.9916811	0.81608814	8.846636772	1.0
[RightToeBase]
36	0	-87.28699493	107.1060028	9.993520737	4.965712833e-06	1.298764801e-05	1.0
37	0	-87.28699493	107.1060028	8.102290154	-8.305298138e-07	1.587168526e-06	1.0
38	0	-87.28699493	107.1060028	7.294813156	-3.041509672e-06	-6.230432064e-07	1.0
39	0	-87.28699493	107.1060028	7.154461384	3.348416158e-06	-4.189538686e-06	1.0
[EndOfFile]
